# xmcd
#
# Track frame offsets:
#	150
#	13212
#	29837
#	44212
#	56892
#	71862
#	89075
#	107112
#	121900
#	136275
#	151607
#	169217
#
# Disc length: 2497 seconds
#
# Revision: 1
# Processed by: cddbd v1.5.2PL0 Copyright (c) Steve Scherf et al.
# Submitted via: audiograbber 1.83.01
#
DISCID=b609bf0c
DTITLE=Various Artist - NFS COUNTRY SINGLES #27
DYEAR=1900
DGENRE=Country
TTITLE0=WOLVERINES - HIP SQUARE DANCE
TTITLE1=SHOT TO PIECES - FJ HOLDEN CADILLAC
TTITLE2=BRIAN LETTON - THE WHEELS OF COBB and CO
TTITLE3=PIXIE JENKINS - GOING AWAY PARTY
TTITLE4=TONY MARTIN - OLD 45'S
TTITLE5=GREIG GARDINER - HAPPY ANNIVERSARY VALENTINE
TTITLE6=PAUL JONES - BACK HOME
TTITLE7=DUSTY FRASER - QUEEN OF THE RODEO
TTITLE8=WARREN WILLIAMS - WESTERN WIND
TTITLE9=DWIGHT YOAKAM - SORRY YOU ASKED
TTITLE10=DWIGHT YOAKAM - NOTHING
TTITLE11=RHETT AKINS - THAT AIN'T MY TRUCK
EXTD=
EXTT0=
EXTT1=
EXTT2=
EXTT3=
EXTT4=
EXTT5=
EXTT6=
EXTT7=
EXTT8=
EXTT9=
EXTT10=
EXTT11=
PLAYORDER=
